<?xml version="1.0" encoding="UTF-8"?>
<!-- Created with Inkscape (http://www.inkscape.org/) -->
<svg width="232.17mm" height="58.281mm" version="1.1" viewBox="0 0 232.17 58.281" xml:space="preserve" xmlns="http://www.w3.org/2000/svg"><defs><clipPath id="2612edfa58"><path d="m34 39.145h92v96.598h-92z"/></clipPath><clipPath id="2d0970306d"><path d="m62.828 59.16h33.699v46.43h-33.699z"/></clipPath><clipPath id="38a419d0a0"><path d="m0.73047 0.046875h143.27v59.906h-143.27z"/></clipPath><clipPath id="d233c24484"><path d="m43 15h114.98v44.953h-114.98z"/></clipPath><clipPath id="d45279b3d1"><path d="m16 105.24h142.77v59.719h-142.77z"/></clipPath><clipPath id="da236e5900"><path d="m1.625 105.24h114.38v44.762h-114.38z"/></clipPath></defs><g transform="translate(-76.334 -118.73)"><g transform="matrix(.35278 0 0 .35278 76.947 118.77)" clip-path="url(#2612edfa58)"><path d="m79.645 39.145c-15.625 0.39453-31.066 4.5664-44.914 11.777 1.5312 15.832 6.3945 31.289 14.652 44.883 1.4609 2.4297 3.0312 4.8008 4.6992 7.0977-3.1289-5-5.668-10.367-7.5117-15.98-3.2812-9.8828-4.6523-20.438-4.1211-30.832 11.043-6.5977 23.66-10.672 36.457-12.074 15.453-1.6992 31.445 0.48828 45.734 6.6289-13.887-7.1523-29.371-11.199-44.996-11.5zm44.996 11.5c-6.7422-2.1836-13.633-3.7773-20.605-4.7031-20.977-2.8398-42.551 0.92969-61.586 10.148 11.633-5.4648 24.375-8.5234 37.223-8.9102 12.844 0.30078 25.609 3.2734 37.273 8.668 2.4297 16.305-0.34765 33.41-7.8398 48.102-3.0352 6.0703-6.9297 11.785-11.43 16.859-5.1289 5.8008-11.102 10.871-17.695 14.906 0.22266-0.12109 2.0469-1.1328 2.8906-1.6133l1.3516-0.79297c3.4883-2.0976 6.8359-4.4297 10-6.9922 22.637-18.137 33.09-47.121 30.418-75.672zm-11.613 36.062c-5.1562 16.004-15.91 30.051-29.937 39.316-1.0039 0.67187-2.0977 1.3672-3.1523 2.0039-13.066-7.5312-24.098-18.52-31.918-31.395-8.3242-13.688-13.09-29.699-13.289-45.711-2.5195 28.555 8.1562 57.508 30.902 75.488 3.1758 2.5391 6.5352 4.8516 10.039 6.9219l1.3594 0.78516c0.91016 0.51172 2.9219 1.6094 2.9219 1.6094h0.0078c3.0977-2.3008 6.0703-4.75 8.875-7.3711 6.293-5.8828 11.754-12.664 16.133-20.078 9.2617-15.711 13.199-34.281 11.973-52.43 0.60156 10.391-0.69532 20.953-3.9141 30.859z" fill="#00bf63"/></g><g transform="matrix(.35278 0 0 .35278 76.947 118.77)" clip-path="url(#2d0970306d)"><path d="m79.754 64.523c4.0312 0 7.293 3.2695 7.293 7.3008v7.3086h-14.59v-7.3086c0-4.0312 3.2656-7.3008 7.2969-7.3008zm12.598 14.66v-7.4141c0-6.957-5.6406-12.598-12.598-12.598-6.9609 0-12.602 5.6406-12.602 12.598v7.4141c-2.4414 0.33594-4.3242 2.4258-4.3242 4.957v16.684c0 2.7656 2.2422 5.0078 5.0117 5.0078h23.828c2.7656 0 5.0078-2.2422 5.0078-5.0078v-16.684c0-2.5312-1.8828-4.6211-4.3242-4.957" fill="#377d3f"/></g><g transform="matrix(.34801 -.057784 .057784 .34801 72.56 123.77)" clip-path="url(#38a419d0a0)"><path d="m91.07 151.77c-39.836 0-72.133-32.223-72.133-71.977 0-39.75 32.297-71.973 72.133-71.973 20.629 0 39.23 8.6406 52.379 22.492-14.641-18.438-37.277-30.27-62.688-30.27-44.141 0-79.926 35.707-79.926 79.75 0 44.047 35.785 79.754 79.926 79.754 25.41 0 48.047-11.832 62.688-30.27-13.148 13.852-31.75 22.492-52.379 22.492" fill="#4a95cf"/></g><g transform="matrix(.32652 .13357 -.13357 .32652 90.263 108.55)" clip-path="url(#d233c24484)"><path d="m93.176 15.215c-19.738 0-37.406 8.8125-49.281 22.711 11.574-10.805 27.121-17.422 44.219-17.422 35.746 0 64.73 28.918 64.73 64.586 0 15.977-5.8164 30.594-15.445 41.867 12.617-11.785 20.504-28.551 20.504-47.16 0-35.668-28.977-64.582-64.727-64.582" fill="#393536"/></g><g transform="matrix(.34801 -.057784 .057784 .34801 72.56 123.77)" clip-path="url(#d45279b3d1)"><path d="m68.438 13.23c39.836 0 72.133 32.227 72.133 71.977 0 39.75-32.297 71.977-72.133 71.977-20.633 0-39.234-8.6445-52.383-22.492 14.645 18.438 37.281 30.27 62.688 30.27 44.141 0 79.93-35.707 79.93-79.754 0-44.047-35.789-79.754-79.93-79.754-25.406 0-48.043 11.832-62.688 30.27 13.148-13.848 31.75-22.492 52.383-22.492" fill="#4a95cf"/></g><g transform="matrix(.32652 .13357 -.13357 .32652 88.785 112.03)" clip-path="url(#da236e5900)"><path d="m69.197 148.9c19.734 0 37.406-8.8125 49.277-22.711-11.57 10.805-27.117 17.418-44.215 17.418-35.75 0-64.73-28.914-64.73-64.586 0-15.973 5.8164-30.59 15.445-41.863-12.617 11.785-20.508 28.551-20.508 47.156 0 35.672 28.98 64.586 64.73 64.586" fill="#393536"/></g><text x="101.53861" y="154.01334" fill="#f9f9f9" font-family="'Square721 BdEx BT'" font-size="7.0556px" stroke-width=".26458" style="line-height:1.25" xml:space="preserve"><tspan x="101.53861" y="154.01334" fill="#f9f9f9" font-family="'Square721 BdEx BT'" font-size="7.0556px" stroke-width=".26458">S</tspan></text><path d="m148.8 129.86c-1.9596 0-3.3734 0.10749-4.2416 0.32246-0.86816 0.21498-1.571 0.57878-2.1084 1.0914-0.45476 0.45475-0.78549 1.0253-0.99219 1.7115-0.20671 0.68627-0.31006 1.5586-0.31006 2.6169 0 2.0505 0.38861 3.4644 1.1658 4.2416 0.78548 0.77721 2.2862 1.1989 4.502 1.265l8.8553 0.19844c1.1328 0.0827 1.8686 0.24391 2.2076 0.48369 0.34727 0.23978 0.5209 0.63665 0.5209 1.1906 0 0.54571-0.14883 0.93845-0.44648 1.1782-0.29766 0.23151-0.79375 0.34726-1.4883 0.34726h-7.0817c-1.0831 0-1.7942-0.11989-2.1332-0.35967-0.33899-0.24804-0.50849-0.71933-0.50849-1.4139v-0.33487l-5.5686 0.0124c-0.0248 0.36381-0.0455 0.67387-0.062 0.93018-8e-3 0.24805-0.0124 0.42581-0.0124 0.5333 0 1.8852 0.5209 3.175 1.5627 3.8695 1.0418 0.68626 3.1047 1.0294 6.1888 1.0294h7.5158c1.6123 0 2.8443-0.0703 3.6959-0.21084 0.85163-0.1323 1.5255-0.35554 2.0216-0.66973 0.75241-0.49609 1.2857-1.0955 1.5999-1.7983 0.32246-0.7028 0.48369-1.695 0.48369-2.9766 0-2.158-0.43408-3.6835-1.3022-4.5765-0.85989-0.89297-2.3482-1.3684-4.4648-1.4263l-9.277-0.14882c-0.84336-0.0662-1.4221-0.21498-1.7363-0.44649-0.31419-0.23978-0.47129-0.62425-0.47129-1.1534 0-0.53743 0.17363-0.91364 0.5209-1.1286 0.34726-0.21497 1.0625-0.32246 2.1456-0.32246h6.4988c0.62012 0 1.0831 0.15296 1.3891 0.45889 0.3142 0.30592 0.47129 0.76481 0.47129 1.3767v0.0744h5.4322c0.0248-0.29766 0.0372-0.51263 0.0372-0.64492 8e-3 -0.13229 0.0124-0.25632 0.0124-0.37207 0-1.7446-0.47129-3.0055-1.4139-3.7827-0.93431-0.77721-2.4681-1.1658-4.6013-1.1658zm50.825 0c-3.299 0-5.5769 0.52504-6.8337 1.5751-1.2568 1.0418-1.8852 2.8856-1.8852 5.5314v5.0354c0 1.3064 0.1695 2.3895 0.5085 3.2494 0.339 0.85163 0.88057 1.571 1.6247 2.158 0.64492 0.49609 1.4221 0.84749 2.3316 1.0542 0.9095 0.2067 2.3275 0.31006 4.254 0.31006h6.3004c1.943 0 3.4148-0.0951 4.4152-0.28526 1.0087-0.19017 1.8149-0.50849 2.4184-0.95498 0.63666-0.46302 1.1038-1.079 1.4015-1.848 0.29765-0.76894 0.44648-1.7446 0.44648-2.927 0-0.26458-0.0124-0.66559-0.0372-1.203-8e-3 -0.0661-0.0124-0.11162-0.0124-0.13642h-5.7175v0.19843c0 0.97566-0.28112 1.6454-0.84336 2.0092-0.55397 0.35554-1.7281 0.53331-3.5223 0.53331h-3.2742c-1.8107 0-3.022-0.24805-3.6339-0.74415-0.61185-0.49609-0.91777-1.4097-0.91777-2.7409v-2.5673c0-1.4883 0.27285-2.4639 0.81855-2.927 0.55397-0.47129 1.7983-0.70694 3.7331-0.70694h4.5144c1.0335 0 1.7859 0.1695 2.2572 0.5085 0.47956 0.33073 0.71933 0.85576 0.71933 1.5751v0.18603h5.6555c0.0165-0.13229 0.0248-0.26871 0.0248-0.40927 8e-3 -0.14883 0.0124-0.35967 0.0124-0.63252 0-1.141-0.14056-2.0877-0.42168-2.8401-0.27285-0.76068-0.7028-1.3643-1.2898-1.8107-0.55398-0.42995-1.3105-0.73587-2.2696-0.91778-0.95912-0.1819-2.4515-0.27285-4.4772-0.27285zm-32.234 0.22325v18.467h20.389v-4.4648h-14.759v-2.8277h13.692v-3.8819h-13.692v-2.7905h14.536v-4.502zm50.292 0v12.7c0 2.2572 0.63252 3.8199 1.8976 4.6881 1.2733 0.86816 3.6008 1.3022 6.9825 1.3022h6.3004c2.8774 0 4.8989-0.45476 6.0648-1.3643 1.1741-0.90951 1.7611-2.4515 1.7611-4.6261v-12.7h-5.6431v10.951c0 1.1989-0.26871 2.0257-0.80615 2.4805-0.53743 0.44649-1.5958 0.66973-3.175 0.66973h-3.1998c-1.9017 0-3.1378-0.21084-3.7083-0.63252-0.56224-0.42995-0.84336-1.2692-0.84336-2.5177v-10.951zm26.789 0v18.467h5.6555v-4.7253h8.4088c1.0087 0 1.6826 0.13643 2.0216 0.40928 0.34726 0.27285 0.52089 0.77308 0.52089 1.5007v2.8153h5.6431v-3.7827c0-0.93431-0.24391-1.695-0.73174-2.282-0.48782-0.58705-1.2196-0.99632-2.1952-1.2278 1.1079-0.26459 1.8976-0.78548 2.3688-1.5627 0.47128-0.77721 0.70693-1.9637 0.70693-3.5595 0-2.2986-0.52917-3.8819-1.5875-4.7501-1.0583-0.86816-3.051-1.3022-5.9779-1.3022zm26.206 0v18.467h5.6431v-18.467zm9.6118 0v18.467h5.6307v-6.2012h13.692v-4.4648h-13.692v-3.299h14.536v-4.502zm22.572 0v18.467h5.6431v-18.467zm-52.735 4.6013h8.9669c0.71107 0 1.2278 0.16537 1.5503 0.4961s0.48369 0.85989 0.48369 1.5875c0 0.91777-0.15296 1.5544-0.45888 1.91-0.29766 0.34727-0.82269 0.5209-1.5751 0.5209h-8.9669z" fill="#4a95cf" stroke-width=".26458"/><path d="m141.6 152.06v13.501h3.4969v-5.948h5.163v5.948h3.4969v-13.501h-3.4969v4.9418h-5.163v-4.9418zm20.289 3.0014c-1.7605 0-3.1358 0.48066-4.1253 1.4418-0.98345 0.96111-1.4748 2.2848-1.4748 3.9713 0 1.6744 0.48867 2.9949 1.4661 3.962 0.98345 0.96112 2.3615 1.4418 4.1341 1.4418s3.1474-0.48066 4.1248-1.4418c0.98345-0.96715 1.4754-2.2876 1.4754-3.962 0-1.6744-0.48868-2.9954-1.4661-3.9626-0.97132-0.96715-2.3493-1.4506-4.1341-1.4506zm32.745 0c-1.803 0-3.2237 0.49265-4.2618 1.4779-1.032 0.97925-1.5477 2.309-1.5477 3.9894 0 1.6986 0.54593 3.0071 1.6387 3.9259s2.6651 1.3782 4.717 1.3782c0.79527 0 1.521-0.0665 2.1766-0.19947 0.65564-0.13298 1.3538-0.34769 2.0944-0.64389v-2.62h-0.36432c-0.37639 0.2841-0.88936 0.55005-1.5389 0.79788-0.64956 0.24784-1.3202 0.37156-2.0123 0.37156-1.0927 0-1.9216-0.21146-2.4862-0.63459-0.5585-0.42313-0.86197-1.0335-0.91054-1.8314h7.5034v-1.1426c0-1.5716-0.41901-2.7744-1.2568-3.6086-0.83776-0.84021-2.0883-1.2604-3.7517-1.2604zm-18.185 0.0362c-0.62528 0-1.196 0.12372-1.712 0.37155-0.51602 0.24784-1.056 0.59278-1.6206 1.034v-1.1245h-3.2784v10.182h3.2784v-7.2176c0.24283-0.14508 0.51605-0.28079 0.81959-0.40773 0.30354-0.13299 0.61618-0.19947 0.93793-0.19947 0.40066 0 0.71008 0.0512 0.92862 0.154 0.22462 0.0967 0.39147 0.25367 0.50075 0.47128 0.10927 0.21761 0.17622 0.50207 0.2005 0.85266 0.0243 0.34455 0.0362 0.76472 0.0362 1.2604v5.0865h3.2964v-7.2176c0.37638-0.21761 0.69549-0.37183 0.95653-0.46251 0.26104-0.0967 0.5278-0.14469 0.80098-0.14469 0.40674 0 0.72261 0.0512 0.94723 0.154 0.22462 0.0967 0.38824 0.25367 0.49144 0.47128 0.10927 0.21761 0.17351 0.49881 0.19172 0.84336 0.0243 0.34455 0.0362 0.76798 0.0362 1.2697v5.0865h3.2964v-6.628c0-1.2392-0.28835-2.1885-0.86507-2.8474-0.57065-0.65887-1.4087-0.98805-2.5135-0.98805-0.59493 0-1.2019 0.15696-1.8211 0.47129-0.61921 0.31433-1.2564 0.74649-1.912 1.2966-0.29139-0.58029-0.69528-1.0184-1.2113-1.3146-0.51601-0.30223-1.111-0.4532-1.7849-0.4532zm17.921 2.004c0.67993 0 1.181 0.17222 1.5028 0.51677 0.32174 0.34455 0.49131 0.85793 0.50952 1.541h-4.2524c0.0486-0.71933 0.27643-1.242 0.68316-1.5684 0.40674-0.32642 0.92566-0.48938 1.557-0.48938zm-32.481 0.23565c0.31568 0 0.60997 0.0512 0.88315 0.15399 0.27319 0.10276 0.50699 0.27823 0.70125 0.52607 0.19427 0.24179 0.346 0.56497 0.45527 0.96996 0.10928 0.405 0.16382 0.90691 0.16382 1.5053 0 0.64679-0.0545 1.1542-0.16382 1.5229-0.1032 0.36269-0.26088 0.67439-0.47335 0.93431-0.18819 0.23575-0.41928 0.40471-0.69247 0.50747-0.26711 0.0967-0.54899 0.14521-0.84646 0.14521-0.34603 0-0.65596-0.0545-0.92914-0.1633-0.26711-0.10881-0.49768-0.28102-0.69195-0.51676-0.20033-0.24784-0.35206-0.57427-0.45527-0.97927-0.1032-0.41105-0.15503-0.89444-0.15503-1.4506 0-0.62261 0.0578-1.1398 0.17312-1.5508 0.12141-0.41104 0.28232-0.73422 0.48266-0.96997 0.22461-0.25388 0.45842-0.42335 0.70125-0.50798 0.2489-0.0846 0.5313-0.1266 0.84697-0.1266z" stroke-width=".29077"/></g></svg>
