<?xml version="1.0" encoding="UTF-8" standalone="no"?>
<!-- Created with Inkscape (http://www.inkscape.org/) -->

<svg
   width="213.961mm"
   height="43.386383mm"
   viewBox="0 0 213.961 43.386383"
   version="1.1"
   id="svg1"
   xml:space="preserve"
   inkscape:version="1.3-beta (cedbd6c, 2023-05-28)"
   sodipodi:docname="securifi_home_darkmode.svg"
   inkscape:export-filename="securifi_lightmode_optimized.svg"
   inkscape:export-xdpi="80"
   inkscape:export-ydpi="80"
   xmlns:inkscape="http://www.inkscape.org/namespaces/inkscape"
   xmlns:sodipodi="http://sodipodi.sourceforge.net/DTD/sodipodi-0.dtd"
   xmlns="http://www.w3.org/2000/svg"
   xmlns:svg="http://www.w3.org/2000/svg"><sodipodi:namedview
     id="namedview1"
     pagecolor="#ffffff"
     bordercolor="#eeeeee"
     borderopacity="1"
     inkscape:showpageshadow="0"
     inkscape:pageopacity="0"
     inkscape:pagecheckerboard="false"
     inkscape:deskcolor="#d1d1d1"
     inkscape:document-units="mm"
     inkscape:zoom="0.97515255"
     inkscape:cx="355.84176"
     inkscape:cy="262.01029"
     inkscape:window-width="1512"
     inkscape:window-height="888"
     inkscape:window-x="0"
     inkscape:window-y="38"
     inkscape:window-maximized="0"
     inkscape:current-layer="layer1" /><defs
     id="defs1"><clipPath
       id="2612edfa58"><path
         d="m 34,39.144531 h 92 V 135.74219 H 34 Z m 0,0"
         clip-rule="nonzero"
         id="path1" /></clipPath><clipPath
       id="2d0970306d"><path
         d="M 62.828125,59.160156 H 96.527344 V 105.58984 H 62.828125 Z m 0,0"
         clip-rule="nonzero"
         id="path2" /></clipPath><clipPath
       id="38a419d0a0"><path
         d="M 0.730469,0.046875 H 144 v 59.90625 H 0.730469 Z m 0,0"
         clip-rule="nonzero"
         id="path3" /></clipPath><clipPath
       id="d233c24484"><path
         d="M 43,15 H 157.98437 V 59.953125 H 43 Z m 0,0"
         clip-rule="nonzero"
         id="path4" /></clipPath><clipPath
       id="d45279b3d1"><path
         d="m 16,105.23828 h 142.77344 v 59.71875 H 16 Z m 0,0"
         clip-rule="nonzero"
         id="path5" /></clipPath><clipPath
       id="da236e5900"><path
         d="M 1.625,105.23828 H 116 V 150 H 1.625 Z m 0,0"
         clip-rule="nonzero"
         id="path6" /></clipPath></defs><g
     inkscape:label="Layer 1"
     inkscape:groupmode="layer"
     id="layer1"
     transform="translate(-77.078661,-126.17778)"><g
       id="g1"
       transform="matrix(0.71417609,0,0,0.71417609,22.030924,42.265033)"><g
         clip-path="url(#2612edfa58)"
         id="g7"
         transform="matrix(0.35277778,0,0,0.35277778,76.947222,118.76591)"><path
           fill="#00bf63"
           d="m 79.644531,39.144531 c -15.625,0.394531 -31.066406,4.566407 -44.914062,11.777344 1.53125,15.832031 6.394531,31.289063 14.652343,44.882813 1.460938,2.429687 3.03125,4.800782 4.699219,7.097652 -3.128906,-4.999996 -5.667969,-10.367184 -7.511719,-15.980465 -3.28125,-9.882813 -4.652343,-20.4375 -4.121093,-30.832031 11.042969,-6.597656 23.660156,-10.671875 36.457031,-12.074219 15.453125,-1.699219 31.44531,0.488281 45.73438,6.628906 -13.88672,-7.152343 -29.371099,-11.199219 -44.996099,-11.5 z m 44.996099,11.5 c -6.74219,-2.183593 -13.63282,-3.777343 -20.60547,-4.703125 -20.976566,-2.839844 -42.550785,0.929688 -61.585941,10.148438 11.632812,-5.464844 24.375,-8.523438 37.222656,-8.910156 12.84375,0.300781 25.609375,3.273437 37.273435,8.667968 2.42969,16.304688 -0.34765,33.410156 -7.83984,48.101564 -3.03516,6.07031 -6.92969,11.78516 -11.429689,16.85937 -5.128906,5.80079 -11.101562,10.8711 -17.695312,14.90625 0.222656,-0.12109 2.046875,-1.13281 2.890625,-1.61328 l 1.351562,-0.79297 c 3.488282,-2.09765 6.835938,-4.42968 10,-6.99218 C 116.85938,108.17969 127.3125,79.195312 124.64063,50.644531 Z m -11.61329,36.0625 c -5.15625,16.003909 -15.910152,30.050779 -29.937496,39.316409 -1.003906,0.67187 -2.097656,1.36719 -3.152344,2.0039 C 66.871094,120.49609 55.839844,109.50781 48.019531,96.632812 39.695312,82.945312 34.929688,66.933594 34.730469,50.921875 c -2.519531,28.554687 8.15625,57.507815 30.902343,75.488285 3.175782,2.53906 6.535157,4.85156 10.039063,6.92187 l 1.359375,0.78516 c 0.910156,0.51172 2.921875,1.60937 2.921875,1.60937 0.0039,0 0.0039,0 0.0078,0 3.097656,-2.30078 6.070312,-4.75 8.875,-7.37109 6.292968,-5.88281 11.753905,-12.66406 16.132815,-20.07813 9.26172,-15.710934 13.19922,-34.281246 11.97266,-52.429684 0.60156,10.390625 -0.69532,20.953125 -3.91407,30.859375 z m 0,0"
           fill-opacity="1"
           fill-rule="nonzero"
           id="path7" /></g><g
         clip-path="url(#2d0970306d)"
         id="g8"
         transform="matrix(0.35277778,0,0,0.35277778,76.947222,118.76591)"><path
           fill="#377d3f"
           d="m 79.753906,64.523438 c 4.03125,0 7.292969,3.269531 7.292969,7.300781 v 7.308593 H 72.457031 v -7.308593 c 0,-4.03125 3.265625,-7.300781 7.296875,-7.300781 z m 12.597656,14.660156 v -7.414063 c 0,-6.957031 -5.640624,-12.597656 -12.597656,-12.597656 -6.960937,0 -12.601562,5.640625 -12.601562,12.597656 v 7.414063 c -2.441406,0.335937 -4.324219,2.425781 -4.324219,4.957031 v 16.683595 c 0,2.76562 2.242187,5.00781 5.011719,5.00781 h 23.828125 c 2.765625,0 5.007812,-2.24219 5.007812,-5.00781 V 84.140625 c 0,-2.53125 -1.882812,-4.621094 -4.324219,-4.957031"
           fill-opacity="1"
           fill-rule="nonzero"
           id="path8" /></g><g
         clip-path="url(#38a419d0a0)"
         id="g9"
         transform="matrix(0.34801318,-0.05778404,0.05778404,0.34801318,72.560242,123.767)"><path
           fill="#4a95cf"
           d="m 91.070312,151.77344 c -39.835937,0 -72.132812,-32.22266 -72.132812,-71.976565 0,-39.75 32.296875,-71.972656 72.132812,-71.972656 20.628908,0 39.230468,8.640625 52.378908,22.492187 -14.64063,-18.4375 -37.27734,-30.269531 -62.687501,-30.269531 -44.140625,0 -79.925781,35.707031 -79.925781,79.75 0,44.046875 35.785156,79.753905 79.925781,79.753905 25.410161,0 48.046871,-11.83203 62.687501,-30.26953 -13.14844,13.85156 -31.75,22.49219 -52.378908,22.49219"
           fill-opacity="1"
           fill-rule="nonzero"
           id="path9" /></g><g
         clip-path="url(#d233c24484)"
         id="g10"
         transform="matrix(0.32651548,0.13356575,-0.13356575,0.32651548,90.263417,108.54948)"
         style="fill:#e6e6e6"><path
           fill="#393536"
           d="m 93.175781,15.214844 c -19.738281,0 -37.40625,8.8125 -49.28125,22.710937 11.574219,-10.804687 27.121094,-17.421875 44.21875,-17.421875 35.746099,0 64.730469,28.917969 64.730469,64.585938 0,15.976566 -5.81641,30.593746 -15.44531,41.867186 12.61718,-11.78515 20.5039,-28.55078 20.5039,-47.160155 0,-35.667969 -28.97656,-64.582031 -64.726559,-64.582031"
           fill-opacity="1"
           fill-rule="nonzero"
           id="path10"
           style="fill:#e6e6e6" /></g><g
         clip-path="url(#d45279b3d1)"
         id="g11"
         transform="matrix(0.34801318,-0.05778404,0.05778404,0.34801318,72.560242,123.767)"><path
           fill="#4a95cf"
           d="m 68.4375,13.230469 c 39.83594,0 72.13281,32.226562 72.13281,71.976562 0,39.749999 -32.29687,71.976559 -72.13281,71.976559 -20.632812,0 -39.234375,-8.64453 -52.382812,-22.49218 14.644531,18.4375 37.28125,30.26953 62.6875,30.26953 44.140622,0 79.929682,-35.70703 79.929682,-79.753909 0,-44.046875 -35.78906,-79.753906 -79.929682,-79.753906 -25.40625,0 -48.042969,11.832031 -62.6875,30.269531 C 29.203125,21.875 47.804688,13.230469 68.4375,13.230469"
           fill-opacity="1"
           fill-rule="nonzero"
           id="path11" /></g><g
         clip-path="url(#da236e5900)"
         id="g12"
         transform="matrix(0.32651548,0.13356575,-0.13356575,0.32651548,88.784827,112.03411)"
         style="fill:#e6e6e6"><path
           fill="#393536"
           d="m 69.197411,148.90439 c 19.734375,0 37.406249,-8.8125 49.277349,-22.71094 -11.57032,10.80469 -27.117192,17.41797 -44.214849,17.41797 -35.75,0 -64.7304682,-28.91406 -64.7304682,-64.585948 0,-15.972656 5.8164062,-30.589843 15.4453122,-41.863281 -12.617187,11.785157 -20.5078122,28.550781 -20.5078122,47.15625 0,35.671889 28.9804682,64.585949 64.7304682,64.585949"
           fill-opacity="1"
           fill-rule="nonzero"
           id="path12"
           style="fill:#e6e6e6" /></g><text
         xml:space="preserve"
         style="font-style:normal;font-variant:normal;font-weight:normal;font-stretch:normal;font-size:7.05556px;line-height:1.25;font-family:'Square721 BdEx BT';-inkscape-font-specification:'Square721 BdEx BT';fill:#f9f9f9;fill-opacity:1;stroke:none;stroke-width:0.264583"
         x="101.53861"
         y="154.01334"
         id="text1"><tspan
           sodipodi:role="line"
           id="tspan1"
           style="font-style:normal;font-variant:normal;font-weight:normal;font-stretch:normal;font-size:7.05556px;font-family:'Square721 BdEx BT';-inkscape-font-specification:'Square721 BdEx BT';fill:#f9f9f9;stroke-width:0.264583"
           x="101.53861"
           y="154.01334">S</tspan></text></g><g
       id="g2"
       transform="translate(-15.345837,-4.3221682)"><text
         xml:space="preserve"
         style="font-style:normal;font-variant:normal;font-weight:normal;font-stretch:normal;font-size:25.4px;line-height:1.25;font-family:'Square721 BdEx BT';-inkscape-font-specification:'Square721 BdEx BT';fill:#4a95cf;fill-opacity:1;stroke:none;stroke-width:0.264583"
         x="137.40398"
         y="161.42673"
         id="text1-3"><tspan
           sodipodi:role="line"
           id="tspan1-6"
           style="font-style:normal;font-variant:normal;font-weight:normal;font-stretch:normal;font-size:25.4px;font-family:'Square721 BdEx BT';-inkscape-font-specification:'Square721 BdEx BT';fill:#4a95cf;fill-opacity:1;stroke-width:0.264583"
           x="137.40398"
           y="161.42673">SECURIFI</tspan></text></g></g></svg>
